<?xml version="1.0" encoding="utf-8"?>
<!-- Generator: Adobe Illustrator 25.3.1, SVG Export Plug-In . SVG Version: 6.00 Build 0)  -->
<svg version="1.1" id="Layer_1" xmlns="http://www.w3.org/2000/svg" xmlns:xlink="http://www.w3.org/1999/xlink" x="0px" y="0px"
	 viewBox="0 0 97 204" style="enable-background:new 0 0 97 204;" xml:space="preserve">
<style type="text/css">
	.st0{fill:#FF0000;}
</style>
<g>
	<path class="st0" d="M83.629,29.931l-0.001,0c0.281-2.635,0.056-5.367-0.752-8.065C79.62,10.999,68.171,4.829,57.304,8.084
		C48.72,10.656,43.09,18.342,42.697,26.813c-4.985-6.859-13.914-10.184-22.498-7.613C9.332,22.455,3.161,33.904,6.416,44.771
		c1.393,4.65,4.292,8.429,7.998,10.989l-0.005,0.005l50.148,39.928l17.107-58.987c1.025-2.115,1.709-4.397,1.963-6.769
		L83.629,29.931z"/>
	<g>
		<g>
			<path d="M63.748,100.286c3.501,4.842,8.036,11.105,5.679,17.414c-1.023,2.739-3.441,4.659-5.008,7.065
				c-1.558,2.392-2.121,5.238-1.793,8.057c0.339,2.915,1.476,5.697,3.107,8.126c1.566,2.332,3.504,4.395,4.996,6.78
				c1.701,2.719,2.238,5.588,1.738,8.762c-0.535,3.397-1.678,6.678-2.362,10.047c-1.538,7.577-1.912,15.356-1.105,23.044
				c0.2,1.901,3.202,1.921,3,0c-0.737-7.022-0.522-14.137,0.772-21.083c1.187-6.372,4.537-13.317,1.87-19.728
				c-2.24-5.383-7.389-8.963-8.783-14.787c-0.699-2.92-0.261-5.746,1.488-8.201c1.732-2.431,3.94-4.406,4.973-7.285
				c2.572-7.175-1.954-14.154-5.982-19.726C65.218,97.221,62.615,98.717,63.748,100.286L63.748,100.286z"/>
		</g>
	</g>
</g>
</svg>
