<?xml version="1.0" encoding="utf-8"?>
<!-- Generator: Adobe Illustrator 25.3.1, SVG Export Plug-In . SVG Version: 6.00 Build 0)  -->
<svg version="1.0" id="Layer_1" xmlns="http://www.w3.org/2000/svg" xmlns:xlink="http://www.w3.org/1999/xlink" x="0px" y="0px"
	 viewBox="0 0 200 50" style="enable-background:new 0 0 200 50;" xml:space="preserve">
<g>
	<g>
		<path d="M15.2,10c0.3-0.2,0.6-0.4,0.9-0.6l-0.6,0.2c0,0,0,0,0-0.1c0.2,0,0.4-0.1,0.6-0.2c0.3-0.1,0.7-0.1,0.9-0.3
			c0.2-0.2,0.4-0.1,0.6-0.2c-0.1,0.1-0.1,0.2-0.2,0.4c0.3,0,0.5,0,0.8-0.1c0.3-0.1,0.6,0.1,0.8,0.4c0,0.1,0.1,0.2,0.2,0.2
			c0.3,0.3,0.3,0.7,0.4,1.1c0,0.1,0.1,0.2,0.1,0.3c0.2,0.4,0.3,0.9,0.4,1.4c0.1,0.7,0,1.4-0.2,2.2c0.1-0.4,0.2-0.7,0.3-1.2
			c0,0.1,0.1,0.1,0.1,0.1c0,0.2,0,0.4,0,0.6c0,0.3,0.2,0.5,0,0.8c-0.1,0.2,0,0.5-0.1,0.7c-0.4,1.1-0.8,2.1-1.2,3.2
			c-0.2,0.5-0.5,1.1-0.7,1.6c-0.1,0.3-0.3,0.6-0.5,0.9c-0.2,0.4-0.3,0.7-0.5,1.1c-0.3,0.7-0.6,1.4-1,2.1c-0.2,0.4-0.3,0.8-0.5,1.2
			c-0.2,0.5-0.5,1-0.7,1.5c-0.3,0.6-0.5,1.1-0.7,1.6c-0.2,0.4-0.4,0.9-0.6,1.3c-0.2,0.4-0.3,0.7-0.4,1.1c0.6-0.6,0.8-1.4,1.2-2.1
			c-0.1,0.4-0.3,0.7-0.4,1.1c0,0,0,0,0,0c0.4-0.4,0.8-0.8,1.2-1.3c0.7-0.8,1.4-1.6,2.2-2.4c0.7-0.7,1.4-1.4,2.1-2.3
			c0.5-0.6,1.2-1.2,1.7-1.8c0.3-0.3,0.6-0.6,0.9-0.9c0.1-0.1,0.3-0.2,0.4-0.3c0,0.3-0.5,0.5-0.3,0.9c0.4-0.5,0.8-1,1.2-1.5
			c0.2-0.2,0.4-0.3,0.6-0.3c0,0.2-0.1,0.4-0.1,0.5h0.2c0,0.1,0,0.1-0.1,0.3c0.1-0.1,0.2-0.1,0.2-0.2l0.1,0c-0.4,0.8-0.8,1.7-1.2,2.5
			c0,0,0.1,0,0.1,0c0.3-0.6,0.6-1.3,0.9-1.9c0,0,0,0,0,0l-0.2,0.6c0,0,0,0,0,0c0.1-0.2,0.2-0.4,0.3-0.6c0,0,0,0,0.1,0
			c-1.4,3.2-2.5,6.4-3.2,9.8c0.6-0.5,1.2-1.1,1.8-1.6c0.5-0.5,1-1.1,1.5-1.7c0.1-0.1,0.2-0.1,0.3-0.2c0.3-0.3,0.5-0.6,0.8-0.9
			c0,0,0.3-0.1,0.1-0.3c0,0,0-0.1,0-0.1c0,0,0.1,0,0.2,0c0-0.1,0-0.1,0-0.2c0,0,0.1-0.1,0.1-0.1c0.2,0,0.3-0.1,0.3-0.3
			c0,0,0.1-0.1,0.2-0.2c0.1-0.1,0.2-0.2,0.3-0.3c0,0,0,0,0.1,0c0.1-0.2,0.1-0.3,0.2-0.5c0,0,0.1,0,0.2,0c0.2-0.3,0.4-0.5,0.6-0.7
			c0.7-0.8,1.5-1.7,2.2-2.5c0.5-0.6,1-1.2,1.4-1.8c0.2-0.2,0.4-0.4,0.6-0.6c0.1-0.2,0.2-0.4,0.4-0.6c0,0,0,0,0.1-0.1
			c0.1-0.1,0.3-0.2,0.3-0.3c0.1-0.1,0.1-0.3,0.2-0.5c0,0.1,0,0.2,0,0.3c0.2-0.2,0.4-0.5,0.6-0.7c0.5-0.5,0.9-1.1,1.4-1.6
			c0.4-0.4,0.8-0.8,1.2-1.2c0.5-0.5,1-1,1.5-1.5c0.4-0.4,0.8-0.8,1.3-1.2c0.7-0.6,1.4-1.1,2.2-1.7c0.3-0.2,0.5-0.3,0.8-0.5
			c0,0,0.1,0,0.1,0c0,0,0,0,0,0.1c-0.2,0.1-0.5,0.3-0.7,0.4c0.2,0,0.4-0.2,0.6,0c-0.5,0.4-1,0.8-1.5,1.2c-0.7,0.7-1.4,1.4-2.1,2.1
			c0,0,0,0.1,0,0.2c0,0.1,0,0.2-0.1,0.2c-0.3,0.3-0.5,0.6-0.8,1c-0.3,0.4-0.6,0.8-1,1.2c-0.6,0.8-1.3,1.6-1.9,2.4
			c-0.3,0.4-0.6,0.9-0.9,1.4c-0.6,0.9-1.2,1.7-1.8,2.6c-0.2,0.2-0.3,0.5-0.5,0.8c2.1-2.9,4.2-5.7,6.5-8.4c0,0.1-0.1,0.2-0.1,0.3
			c-0.4,0.5-0.9,1-1.3,1.6c0.9-0.8,1.7-1.7,2.6-2.6l0.1,0c-0.1,0.2-0.3,0.4-0.4,0.6c-0.2,0.3-0.5,0.5-0.7,0.9
			c-0.2,0.3-0.5,0.6-0.7,0.9c-0.5,0.7-1,1.4-1.6,2.1c-0.6,0.8-1.2,1.6-1.8,2.4c-0.5,0.7-0.9,1.4-1.3,2.1c-0.3,0.4-0.6,0.8-0.8,1.2
			c-0.9,1.4-1.8,2.8-2.7,4.2c-0.7,1-1.4,2-2.1,3c-0.8,1.2-1.7,2.2-2.6,3.3c-0.4,0.4-0.7,0.8-1.1,1.1c-0.5,0.4-0.9,0.7-1.5,1
			c-0.5,0.2-1.1,0.2-1.5-0.1c-0.6-0.3-1-0.8-1.4-1.2c-0.1-0.1-0.3-0.2-0.1-0.5c0,0-0.1-0.1-0.1-0.1c-0.4-0.1-0.6-0.5-0.7-0.8
			c0-0.1,0-0.1,0-0.2c0-0.1-0.1-0.3,0-0.4c0.1-0.2,0.2-0.4,0-0.6c-0.1,0.2-0.2,0.5-0.3,0.8c-0.2-0.4-0.3-0.8-0.2-1.2
			c0.1-0.5,0.2-1,0.2-1.5c0-0.2,0-0.4,0.1-0.7c0-0.1,0-0.2,0.1-0.3c0.1-0.5,0.3-1.1,0.5-1.6c0-0.1,0.1-0.2,0.1-0.4
			c-0.1,0.1-0.2,0.2-0.3,0.4c-0.6,0.7-1.2,1.4-1.6,2.1c-0.4,0.6-0.9,1.3-1.4,1.9c-0.4,0.5-0.8,1-1.2,1.5c-0.6,0.8-1.2,1.6-1.9,2.4
			c-0.3,0.4-0.7,0.8-1.1,1.2c-0.4,0.4-0.8,0.2-0.8-0.2c-0.4,0-0.6-0.2-0.5-0.6c0-0.3,0-0.3-0.3-0.2c-0.1,0-0.3-0.1-0.4-0.2
			c-0.2-0.3-0.4-0.5-0.6-0.8c0-0.1,0-0.2,0-0.4C8.9,35.1,9,34.7,9,34.5c0.1-0.4,0.3-0.8,0.5-1.2c0.5-1.2,1-2.4,1.5-3.5
			c0.4-1,0.8-2,1.2-3c0.2-0.5,0.4-1,0.6-1.6c0.1-0.4,0.2-0.7,0.4-1.1c0.1-0.4,0.3-0.7,0.5-1.1c0.1-0.4,0.2-0.8,0.4-1.2
			c0.3-0.9,0.6-1.8,1-2.7c0.2-0.7,0.5-1.4,0.7-2.1c0.1-0.5,0.3-0.9,0.5-1.3c0.1-0.2,0-0.4,0.1-0.6c0-0.1,0.1-0.3,0.2-0.5
			c0.1-0.6,0.3-1.2,0.4-1.8c0-0.2,0.1-0.5,0.1-0.8c-0.1,0.1-0.2,0.1-0.3,0.2c-0.2,0.1-0.4,0.4-0.8,0.4c-0.1,0-0.4,0.2-0.5,0.3
			c-0.6,0.5-1.1,1.1-1.6,1.6c-0.9,1-1.7,2.1-2.5,3.2c0,0,0,0-0.1,0c1.2-1.8,2.5-3.5,4.2-5c-0.1,0-0.1,0-0.2,0.1
			c-1.1,0.8-1.9,1.9-2.7,2.9c-0.5,0.6-1,1.3-1.4,2c-0.6,1-1.2,2-1.7,3c0,0.1-0.1,0.2-0.2,0.4c0-0.5,1.7-3.5,2.7-4.9
			c1.2-1.5,2.4-2.9,3.8-4.2l0,0c-0.1,0-0.2,0.1-0.3,0.1c-1.2,0.9-2.2,2-3.1,3.2c-0.8,1.1-1.5,2.2-2.3,3.3c0,0,0,0,0,0
			c0,0,0,0.1-0.1,0.1c-0.3,0.6-0.7,1.3-1,1.9c-0.1,0.3-0.1,0.6-0.2,0.9c0,0.1-0.1,0.2-0.2,0.3c0,0,0,0.1,0,0.1c0,0,0,0,0,0
			c0,0.3-0.1,0.7-0.1,1.1c-0.1,0.6,0.1,0.9,0.6,1.1c0.1,0,0.2,0.1,0.2,0.2c-0.3,0-0.6-0.1-0.9-0.1c0,0-0.1,0-0.1-0.1
			c-0.4-0.5-0.6-1.2-0.5-1.8c0.1-1.7,0.7-3.3,1.6-4.8c0.8-1.3,1.6-2.6,2.5-3.9c0.6-0.7,1.2-1.4,1.9-2.1c0.3-0.3,0.6-0.7,0.9-1.1l0,0
			C14.9,10.3,15,10.2,15.2,10z M10.3,17.9c0.5-0.7,1-1.5,1.6-2.2c0.8-0.9,1.5-1.9,2.4-2.8c0.2-0.2,0.4-0.5,0.6-0.7c0,0,0,0,0,0
			c-0.2,0.2-0.4,0.3-0.6,0.5c-0.3,0.3-0.6,0.6-0.9,0.9c-0.5,0.6-1,1.1-1.4,1.7c-0.6,0.9-1.2,1.8-1.8,2.7c-0.2,0.4-0.5,0.8-0.7,1.3
			c0.2-0.3,0.5-0.7,0.7-1.1c0,0,0,0,0-0.1c0,0,0-0.1,0-0.1C10.1,18,10.2,17.9,10.3,17.9z M11.6,33.2c0.1-0.1,0.3-0.3,0.4-0.4
			c0.2-0.4,0.4-0.8,0.6-1.2c0.5-1.2,0.9-2.4,1.4-3.6c0.1-0.2,0.1-0.4,0.2-0.5c0.1-0.2,0.1-0.4,0.2-0.5c0.2-0.1,0-0.3,0.2-0.3
			c0-0.3,0.2-0.6,0.3-0.8c0.4-0.9,0.7-1.8,1.1-2.6c0-0.1,0.2-0.2,0-0.2c0-0.1,0.1-0.2,0.1-0.3c0,0,0.1,0,0.1,0c0,0,0-0.1-0.1-0.1
			c0,0,0.1,0,0.1,0c0-0.1,0-0.2,0-0.2c0.4-1.1,0.9-2.1,1.3-3.2c0.2-0.5,0.3-1.1,0.5-1.6c0.1-0.4,0.2-0.7,0.3-1.1
			c0.1-0.3,0.1-0.6,0.2-0.8c0,0-0.1,0-0.1,0c-0.1,0.4-0.2,0.7-0.3,1c-0.5,1.3-1,2.6-1.5,4c-0.3,0.7-0.5,1.5-0.8,2.2
			c-0.2,0.6-0.5,1.2-0.8,1.8c-0.6,1.3-1.1,2.7-1.6,4.1c-0.4,0.9-0.8,1.8-1.2,2.6C12,32,11.8,32.6,11.6,33.2
			C11.5,33.2,11.5,33.2,11.6,33.2z M15,31.5c-0.6,0.6-1.1,1.2-1.6,1.9c-0.2,0.3-0.5,0.6-0.7,0.8c0.1,0,0.2-0.1,0.3-0.2
			c0.3-0.3,0.6-0.6,0.9-0.9c0.5-0.5,1-1.1,1.4-1.7c0.2-0.3,0.5-0.6,0.7-1c0.1,0,0.2-0.1,0.3-0.2c0.8-1,1.6-1.9,2.4-2.9
			c0.2-0.2,0.4-0.4,0.6-0.6c-0.5,0.7-1,1.3-1.5,2c-0.4,0.6-0.8,1.1-1.2,1.6c-0.4,0.5-0.8,1-1.2,1.4c-0.3,0.3-0.6,0.6-0.8,0.9
			c-0.2,0.2-0.3,0.5-0.5,0.7c-0.2,0.2-0.4,0.5-0.6,0.7c-0.1,0.1-0.2,0.2-0.3,0.4c0,0.1-0.1,0.2-0.2,0.2c-0.3,0.1-0.4,0.5-0.5,0.7
			c0.5-0.5,1.1-1.1,1.6-1.6c-0.6,1-1.5,1.8-2.1,2.8c0.2-0.2,0.4-0.5,0.6-0.8c0.9-1.1,1.8-2.3,2.8-3.4c0.4-0.5,0.8-1.1,1.3-1.6
			c0.5-0.6,1.1-1.3,1.6-2c0.4-0.5,0.8-0.9,1.1-1.4c0.4-0.6,0.5-1.2,1-1.8c0.1-0.2,0.2-0.5,0.3-0.7c0.2-0.3,0.4-0.7,0.6-1.1
			c0-0.1,0-0.1,0-0.2c-0.1,0.1-2,2-2.1,2c1.2-1.1,2.2-2.3,3.1-3.6c-0.1,0-0.2,0.1-0.3,0.2c-0.3,0.3-0.5,0.6-0.8,0.8
			c-0.8,0.9-1.7,1.7-2.3,2.7c-0.3,0.5-0.7,0.9-1.1,1.3c-0.2,0.3-0.4,0.5-0.6,0.8c0,0,0,0,0,0c0.4-0.4,0.7-0.7,1.1-1.2
			c0,0.1,0,0.3-0.1,0.4c-0.7,0.8-1.5,1.7-2.2,2.6c0,0,0.1,0.1,0.1,0.1c0.4-0.5,0.8-0.9,1.2-1.4c0,0,0,0,0.1,0.1
			c-0.1,0.1-0.2,0.3-0.4,0.5c-0.4,0.5-0.7,0.9-1.1,1.4C15.6,30.8,15.3,31.1,15,31.5z M14.7,27c0.1-0.3,0.2-0.6,0.3-0.9
			c0,0,0,0-0.1,0c-0.8,2-1.7,3.9-2.5,5.9c0.2-0.3,0.4-0.4,0.5-0.7c0.4-0.8,0.8-1.7,1.1-2.5c0.1-0.2,0-0.4,0.1-0.6
			c0.1,0,0.2-0.1,0.2-0.1c0.3-0.6,0.6-1.3,0.9-1.9c0.6-1.4,1.2-2.8,1.8-4.2c0.1-0.2,0.1-0.4,0.2-0.6c0,0,0,0,0,0
			C16.4,23.3,15.6,25.2,14.7,27C14.7,27,14.7,27,14.7,27z M13.9,11.3c-0.2,0.2-0.4,0.5-0.6,0.7c0,0,0,0-0.1,0c0.3-0.3,0.6-0.6,0.8-1
			c0.1-0.2,0.3-0.4,0.5-0.5c0,0,0.2-0.2,0.1,0l0,0C14.5,10.7,14.2,11,13.9,11.3z M15.1,30.3c-0.2,0.2-0.4,0.4-0.6,0.6
			c-0.2,0.2-0.4,0.5-0.6,0.7l0.1,0.1c0.4-0.5,0.9-1,1.3-1.5c0.4-0.5,0.9-0.9,1.3-1.4c0,0,0,0-0.1,0c-0.4,0.5-0.8,0.9-1.2,1.4
			c0,0,0,0,0,0.1C15.1,30.2,15.1,30.3,15.1,30.3z M18.8,19.8C18.8,19.9,18.8,19.9,18.8,19.8c-0.1,0.4-0.2,0.7-0.4,1c0,0,0,0-0.1,0
			C18.5,20.5,18.6,20.2,18.8,19.8z M18.6,31.6c0.1-0.5,0.3-1,0.4-1.5c0,0,0,0-0.1,0c-0.1,0.5-0.3,1-0.5,1.5
			C18.5,31.6,18.5,31.6,18.6,31.6z M18.9,15.1l0.1-1.1H19L18.9,15.1C18.8,15.1,18.9,15.1,18.9,15.1z"/>
		<path d="M32.1,28.5C32.1,28.5,32.1,28.5,32.1,28.5c0.1-0.5,0.3-1,0.5-1.5c0.2-0.5,0.5-1,0.8-1.4c0.3-0.5,0.6-1,1-1.3
			c0.4-0.3,0.8-0.8,1.3-1c-0.1,0.1-0.1,0.1-0.2,0.1c-0.1,0.1-0.2,0.1-0.3,0.2c-0.1,0.1-0.1,0.1-0.2,0.3c0.1-0.1,0.3-0.1,0.4-0.2
			c0.2-0.1,0.3-0.3,0.5-0.4c0,0,0.1-0.1,0.1-0.1c0.1,0,0.1,0,0.2-0.1c0-0.1-0.1-0.1-0.1-0.2c0.2,0,0.3,0,0.5,0c0,0,0,0-0.1,0.1
			c0.2-0.2,0.3,0,0.4,0.1c0.2,0.1,0.3,0.3,0.5,0.5c0.2,0.3,0.2,0.7,0.2,1.1c0,0.5-0.3,0.9-0.6,1.3c0.1-0.2,0.2-0.4,0.3-0.6
			c0,0,0,0-0.1,0c-0.4,0.6-0.8,1.1-1.2,1.7C36,27.2,36,27.1,36,27.1c0.1-0.1,0.2-0.3,0.3-0.4c0,0,0,0,0,0c-0.2,0.3-0.5,0.5-0.7,0.8
			c-0.2,0.2-0.4,0.4-0.7,0.6c-0.2,0.1-0.4,0.3-0.6,0.4c0,0-0.1,0.1-0.1,0.1c-0.1,0.2-0.1,0.2-0.3,0.3c-0.1,0.4-0.3,0.7-0.4,1.1
			c0.5,0.1,0.9-0.1,1.3-0.2c0.9-0.2,1.6-0.6,2.4-1.2c0.5-0.4,1-0.7,1.5-1.1c0.3-0.2,0.5-0.5,0.8-0.7c0.1-0.1,0.1-0.1,0.2-0.1
			L39.5,27c0,0,0,0,0,0c0.1-0.1,0.3-0.2,0.4-0.3c0,0.1,0.1,0.2,0.1,0.4c0,0.1-0.1,0.1-0.1,0.2c0,0,0.1,0,0.2,0.1
			c-0.3,0.4-0.6,0.7-1,1.1c0,0,0,0,0.1,0.1c0.4-0.3,0.6-0.7,1-1c0,0,0,0,0.1,0.1c-0.3,0.3-0.6,0.6-0.9,0.9c-0.5,0.5-1.1,1-1.7,1.4
			c-0.5,0.4-1,0.6-1.4,1c-0.2,0.1-0.4,0.2-0.6,0.3c-0.5,0.4-1,0.5-1.6,0.7c0.4,0.2,0.8-0.1,1.2-0.2c-0.1,0-0.1,0.1-0.2,0.1
			c-0.1,0-0.1,0.1-0.2,0.1c-0.3,0.2-0.7,0.3-1.1,0.4c-0.1,0-0.2,0-0.3-0.1c-0.2-0.1-0.4-0.3-0.6-0.5c-0.1,0-0.1-0.1-0.1-0.2
			c-0.2-0.2-0.4-0.5-0.5-0.7c-0.1-0.2-0.2-0.5-0.3-0.7c0-0.1-0.1-0.2-0.1-0.3c0-0.1,0-0.2,0-0.3C32,29.1,32.1,28.8,32.1,28.5
			C32.2,28.5,32.1,28.5,32.1,28.5z M34.1,27.9c0.3-0.5,0.5-0.9,0.7-1.4C34.5,27,34.2,27.4,34.1,27.9C34,27.9,34,27.9,34.1,27.9z
			 M38.2,30.1c-0.8,0.7-1.7,1.3-2.7,1.7c-0.4,0.2-0.9,0.4-1.3,0.3c0.2-0.1,0.3-0.1,0.5-0.1c0,0-0.1,0-0.1-0.1
			c1.4-0.4,2.6-1.1,3.7-2.1c0,0,0,0,0.1,0C38.3,30,38.2,30.1,38.2,30.1z M34.7,27.6c0,0,0.1,0,0.1-0.1c0.1-0.1,0.1-0.3,0.3-0.4
			c0.2-0.1,0.3-0.4,0.4-0.5c0.2-0.3,0.4-0.6,0.6-1c0.1-0.1,0.1-0.3,0.2-0.5c0.1-0.2,0.1-0.3-0.1-0.3c-0.2,0.2-0.4,0.4-0.6,0.6
			c-0.2,0.3-0.4,0.6-0.6,1c-0.2,0.4-0.5,0.7-0.7,1.1C34.6,27.5,34.6,27.6,34.7,27.6z M37.2,25.5c0-0.2,0.3-0.3,0.2-0.6
			C37.3,25.1,37.2,25.3,37.2,25.5C37.2,25.5,37.2,25.5,37.2,25.5z"/>
	</g>
	<g>
		<path d="M45.4,24.2h1.1v-2h2v2h1.4v1.5h-1.4v3.6c0,0.6,0.2,0.8,0.8,0.8c0.1,0,0.3,0,0.5,0v1.4c-0.4,0.1-0.9,0.1-1.3,0.1
			c-1.4,0-1.9-0.8-1.9-2v-3.8h-1.1V24.2z"/>
		<path d="M53.1,21.2v3.8c0.3-0.5,0.9-1,2.1-1c1.4,0,2.4,0.8,2.4,2.8v4.7h-2v-4.4c0-0.9-0.3-1.4-1.2-1.4c-1.1,0-1.3,0.8-1.3,1.9v3.8
			h-2V21.2H53.1z"/>
		<path d="M61,28.3c0,0.9,0.5,1.8,1.5,1.8c0.8,0,1.1-0.3,1.3-0.8h2c-0.3,0.9-1,2.3-3.3,2.3C60,31.6,59,29.9,59,28
			c0-2.3,1.2-3.9,3.5-3.9c2.5,0,3.3,1.8,3.3,3.6c0,0.2,0,0.4,0,0.6H61z M63.8,27c0-0.8-0.4-1.6-1.3-1.6c-1,0-1.3,0.7-1.4,1.6H63.8z"
			/>
		<path d="M72.2,31.5l-2.5-9.7H72c0.9,4.4,1.3,6.4,1.4,7.5h0c0.4-1.8,1.3-5.1,1.9-7.5h1.9c0.5,1.9,1.5,5.6,1.8,7.4h0
			c0.3-2.1,1.3-5.9,1.6-7.4h2L80,31.5h-2.2c-0.5-2.1-1.4-5.3-1.7-6.9h0c-0.4,1.7-1.2,5-1.7,6.9H72.2z"/>
		<path d="M89.9,27.8c0,2.2-1.3,3.8-3.6,3.8c-2.2,0-3.6-1.6-3.6-3.8c0-2.2,1.4-3.8,3.7-3.8C88.5,24.1,89.9,25.6,89.9,27.8z
			 M84.7,27.8c0,1.4,0.6,2.2,1.6,2.2c1,0,1.5-0.8,1.5-2.2c0-1.5-0.6-2.2-1.6-2.2C85.3,25.6,84.7,26.3,84.7,27.8z"/>
		<path d="M91.2,26.2c0-0.7,0-1.4,0-2h2c0,0.2,0.1,0.9,0.1,1.3c0.3-0.8,1.1-1.4,2.3-1.4V26c-1.5,0-2.3,0.4-2.3,2.3v3.2h-2V26.2z"/>
		<path d="M96.7,31.5V21.2h2v10.2H96.7z"/>
		<path d="M107.2,21.2v8.2c0,0.7,0,1.3,0,2h-1.9c0-0.2-0.1-0.6-0.1-0.8c-0.4,0.6-1,0.9-2.1,0.9c-1.8,0-3-1.5-3-3.7
			c0-2.2,1.2-3.9,3.3-3.9c1,0,1.6,0.4,1.8,0.7v-3.5H107.2z M102.2,27.9c0,1.4,0.6,2.2,1.5,2.2c1.4,0,1.5-1.2,1.5-2.2
			c0-1.2-0.2-2.2-1.5-2.2C102.7,25.7,102.2,26.5,102.2,27.9z"/>
		<path d="M121.5,26.6c0,2.7-1.6,5-4.8,5c-3,0-4.6-2.2-4.6-5c0-2.8,1.8-5,4.8-5C119.7,21.7,121.5,23.7,121.5,26.6z M114.2,26.6
			c0,1.9,0.8,3.3,2.5,3.3c1.9,0,2.5-1.6,2.5-3.3c0-1.8-0.7-3.3-2.5-3.3C115,23.4,114.2,24.7,114.2,26.6z"/>
		<path d="M122.9,26.2c0-0.7,0-1.4,0-2h2c0,0.2,0.1,0.9,0.1,1.3c0.3-0.8,1.1-1.4,2.3-1.4V26c-1.5,0-2.3,0.4-2.3,2.3v3.2h-2V26.2z"/>
		<path d="M134.9,30.6c0,2.3-0.9,3.8-3.6,3.8c-2.6,0-3.2-1.5-3.2-2.3h2c0.1,0.5,0.5,0.8,1.3,0.8c1.3,0,1.5-0.8,1.5-2.2v-0.3
			c-0.4,0.6-1,1-2,1c-1.9,0-3-1.6-3-3.5c0-2.3,1.4-3.8,3.2-3.8c1.2,0,1.8,0.6,1.9,0.9c0-0.2,0.1-0.6,0.1-0.8h1.9c0,0.6,0,1.4,0,2.1
			V30.6z M130,27.8c0,1.2,0.6,2,1.5,2c1.2,0,1.5-0.8,1.5-2c0-1.2-0.2-2.1-1.5-2.1C130.6,25.7,130,26.3,130,27.8z"/>
		<path d="M142.6,29.6c0,0.7,0.1,1.7,0.1,1.9h-1.9c-0.1-0.1-0.1-0.5-0.1-0.7c-0.3,0.4-0.8,0.9-2,0.9c-1.7,0-2.5-1.1-2.5-2.3
			c0-1.7,1.3-2.4,3.5-2.4c0.4,0,0.8,0,1,0v-0.4c0-0.5-0.2-1-1.1-1c-0.8,0-1,0.4-1.1,0.9h-1.9c0.1-1.3,0.9-2.3,3.1-2.3
			c1.9,0,3,0.8,3,2.5V29.6z M140.6,28.2c-0.2,0-0.6,0-0.8,0c-1.2,0-1.7,0.4-1.7,1.1c0,0.5,0.3,1,1,1c1.3,0,1.4-0.9,1.4-1.8V28.2z"/>
		<path d="M144.4,26c0-0.6,0-1.3,0-1.8h1.9c0,0.2,0.1,0.7,0.1,0.9c0.2-0.5,0.8-1.1,2.1-1.1c1.5,0,2.4,1,2.4,2.8v4.6h-2v-4.4
			c0-0.8-0.3-1.4-1.2-1.4c-0.9,0-1.3,0.5-1.3,1.8v4h-2V26z"/>
		<path d="M152.7,21.2h2V23h-2V21.2z M152.7,24.2h2v7.3h-2V24.2z"/>
		<path d="M156,30l3.6-4.2h-3.4v-1.6h5.7v1.6l-3.5,4.1h3.8l-0.2,1.6H156V30z"/>
		<path d="M169.4,29.6c0,0.7,0.1,1.7,0.1,1.9h-1.9c-0.1-0.1-0.1-0.5-0.1-0.7c-0.3,0.4-0.8,0.9-2,0.9c-1.7,0-2.5-1.1-2.5-2.3
			c0-1.7,1.3-2.4,3.5-2.4c0.4,0,0.8,0,1,0v-0.4c0-0.5-0.2-1-1.1-1c-0.8,0-1,0.4-1.1,0.9h-1.9c0.1-1.3,0.9-2.3,3.1-2.3
			c1.9,0,3,0.8,3,2.5V29.6z M167.4,28.2c-0.2,0-0.6,0-0.8,0c-1.2,0-1.7,0.4-1.7,1.1c0,0.5,0.3,1,1,1c1.3,0,1.4-0.9,1.4-1.8V28.2z"/>
		<path d="M170.3,24.2h1.1v-2h2v2h1.4v1.5h-1.4v3.6c0,0.6,0.2,0.8,0.8,0.8c0.1,0,0.3,0,0.5,0v1.4c-0.4,0.1-0.9,0.1-1.3,0.1
			c-1.4,0-1.9-0.8-1.9-2v-3.8h-1.1V24.2z"/>
		<path d="M176,21.2h2V23h-2V21.2z M176,24.2h2v7.3h-2V24.2z"/>
		<path d="M186.6,27.8c0,2.2-1.3,3.8-3.6,3.8c-2.2,0-3.6-1.6-3.6-3.8c0-2.2,1.4-3.8,3.7-3.8C185.2,24.1,186.6,25.6,186.6,27.8z
			 M181.4,27.8c0,1.4,0.6,2.2,1.6,2.2c1,0,1.5-0.8,1.5-2.2c0-1.5-0.6-2.2-1.6-2.2C182,25.6,181.4,26.3,181.4,27.8z"/>
		<path d="M187.9,26c0-0.6,0-1.3,0-1.8h1.9c0,0.2,0.1,0.7,0.1,0.9c0.2-0.5,0.8-1.1,2.1-1.1c1.5,0,2.4,1,2.4,2.8v4.6h-2v-4.4
			c0-0.8-0.3-1.4-1.2-1.4c-0.9,0-1.3,0.5-1.3,1.8v4h-2V26z"/>
	</g>
</g>
</svg>
