<?xml version="1.0" encoding="utf-8"?>
<!-- Generator: Adobe Illustrator 25.3.1, SVG Export Plug-In . SVG Version: 6.00 Build 0)  -->
<svg version="1.1" id="Layer_1" xmlns="http://www.w3.org/2000/svg" xmlns:xlink="http://www.w3.org/1999/xlink" x="0px" y="0px"
	 viewBox="0 0 250 250" style="enable-background:new 0 0 250 250;" xml:space="preserve">
<style type="text/css">
	.st0{fill:#2E3192;}
	.st1{fill:#F2F2F2;}
	.st2{fill:#0CC4EF;}
	.st3{fill:#FCFCFC;}
	.st4{fill:#0F20ED;}
	.st5{fill:#0071BC;}
</style>
<g>
	<g>
		<circle class="st0" cx="130" cy="117" r="95.5"/>
		<path class="st1" d="M225.543,117c0.029,12.508-2.395,25.028-7.169,36.605c-4.758,11.582-11.833,22.208-20.669,31.1
			c-8.838,8.89-19.434,16.036-31.016,20.87c-11.576,4.865-24.151,7.254-36.688,7.248c-12.544-0.031-25.078-2.519-36.644-7.356
			c-11.571-4.82-22.163-11.95-30.999-20.825c-8.819-8.888-15.938-19.465-20.753-31.029c-4.827-11.559-7.312-24.081-7.338-36.614
			c-0.027-12.533,2.404-25.077,7.19-36.675C46.223,68.72,53.314,58.07,62.196,49.196c8.874-8.879,19.5-16.003,31.1-20.809
			c11.594-4.823,24.148-7.294,36.704-7.303c12.551,0.012,25.125,2.436,36.703,7.306c11.584,4.843,22.179,11.997,31.014,20.894
			c8.83,8.9,15.904,19.526,20.661,31.11C223.151,91.972,225.574,104.492,225.543,117z M225.457,117
			c-0.04-12.497-2.531-24.978-7.354-36.493c-4.806-11.521-11.912-22.065-20.763-30.848c-8.849-8.784-19.424-15.811-30.944-20.531
			c-11.515-4.726-23.942-7.216-36.397-7.213c-12.449,0-24.896,2.442-36.395,7.215C82.1,33.888,71.556,40.946,62.747,49.747
			c-8.799,8.809-15.889,19.329-20.685,30.829c-4.81,11.495-7.292,23.951-7.328,36.424c-0.017,12.473,2.411,24.951,7.18,36.486
			c4.748,11.54,11.81,22.134,20.672,30.929c8.846,8.806,19.426,15.856,30.959,20.599c11.528,4.759,23.994,7.184,36.456,7.163
			c12.468-0.014,24.894-2.538,36.411-7.27c11.522-4.728,22.096-11.763,30.941-20.554c8.845-8.791,15.951-19.336,20.756-30.858
			C222.93,141.979,225.419,129.497,225.457,117z"/>
	</g>
	<g>
		<path class="st2" d="M109.188,91.291L109.188,91.291L109.188,91.291c-0.48-1.443-1.076-2.839-1.78-4.178L78.594,19.484
			l-29.76,69.634c-1.44,3.357-2.24,7.011-2.24,10.839c0,16.292,14.327,29.5,32,29.5s32-13.208,32-29.5
			C110.594,96.941,110.101,94.031,109.188,91.291z"/>
		<path class="st3" d="M88.594,63.457l10.408,25.75c0,0,14.592,29.25-15.408,30.25c22-4,12-29,12-29L88.594,63.457z"/>
	</g>
	<g>
		<path class="st4" d="M162.188,143.291L162.188,143.291L162.188,143.291c-0.48-1.443-1.076-2.839-1.78-4.178l-28.814-67.629
			l-29.76,69.634c-1.44,3.357-2.24,7.011-2.24,10.839c0,16.292,14.327,29.5,32,29.5s32-13.208,32-29.5
			C163.594,148.941,163.101,146.031,162.188,143.291z"/>
		<path class="st3" d="M141.594,115.457l10.408,25.75c0,0,14.592,29.25-15.408,30.25c22-4,12-29,12-29L141.594,115.457z"/>
	</g>
	<g>
		<path class="st5" d="M94.791,170.745L94.791,170.745L94.791,170.745c-0.413-1.241-0.926-2.441-1.531-3.593L68.484,109
			l-25.59,59.876c-1.238,2.886-1.926,6.028-1.926,9.321c0,14.009,12.319,25.366,27.516,25.366S96,192.206,96,178.196
			C96,175.603,95.576,173.101,94.791,170.745z"/>
		<path class="st3" d="M77.083,146.811l8.95,22.142c0,0,12.547,25.151-13.249,26.011c18.917-3.439,10.318-24.936,10.318-24.936
			L77.083,146.811z"/>
	</g>
	<g>
		<path class="st2" d="M131.209,209.875L131.209,209.875L131.209,209.875c-0.27-0.812-0.606-1.597-1.001-2.35L114,169.484
			l-16.74,39.169c-0.81,1.888-1.26,3.944-1.26,6.097c0,9.164,8.059,16.594,18,16.594s18-7.429,18-16.594
			C132,213.053,131.722,211.417,131.209,209.875z"/>
		<path class="st3" d="M119.625,194.218l5.855,14.484c0,0,8.208,16.453-8.667,17.016c12.375-2.25,6.75-16.312,6.75-16.312
			L119.625,194.218z"/>
	</g>
</g>
</svg>
