<?xml version="1.0" encoding="utf-8"?>
<!-- Generator: Adobe Illustrator 25.3.1, SVG Export Plug-In . SVG Version: 6.00 Build 0)  -->
<svg version="1.0" id="Layer_1" xmlns="http://www.w3.org/2000/svg" xmlns:xlink="http://www.w3.org/1999/xlink" x="0px" y="0px"
	 viewBox="0 0 150 150" style="enable-background:new 0 0 150 150;" xml:space="preserve">
<style type="text/css">
	.st0{fill:#0000FF;}
	.st1{opacity:0.4;fill:#00FF0C;}
	.st2{fill:#00FF00;}
	.st3{font-family:'Fedattona-Italic';}
	.st4{font-size:70.87px;}
	.st5{fill:#15B0ED;}
	.st6{fill:#7A0384;}
	.st7{fill:#D836D8;}
	.st8{fill:#1150ED;}
</style>
<path class="st0" d="M30.1,75.2c0-24.6,19.9-44.5,44.5-44.5c2.5,0,5,0.2,7.4,0.6c21.1,3.5,37.1,21.8,37.1,43.9
	c0,24.6-19.9,44.5-44.5,44.5S30.1,99.8,30.1,75.2z"/>
<path class="st1" d="M74.6,49.8c-11.5-1.1-15.5,18.9-3.5,20.9s18.3-1,18.7,4.5c0.3,5.5,2.3,8.5,8.3,8.5s14-8,15-4s5.2,4,5.2,4
	s5.8-23-13.4-41.1c-15.8-14.9-35.1-12-39.5-11c-4.3,1.1,14.5,5.2,18.7,10.1C90.1,48.7,74.6,49.8,74.6,49.8z"/>
<path class="st1" d="M36.7,51.8c0,0,8.6,7.3,7.4,20.8c-1,11,8,13,8,13s17,3,3,15c-9.6,8.2-13.3,4.5-13.3,4.5s-9.7-8.8-11.7-26.7
	C29.1,69.7,33.1,56.7,36.7,51.8z"/>
<path class="st1" d="M68.1,119.2c0,0,4-24.6,41.5-16.6C107.6,105.7,94.1,122.2,68.1,119.2z"/>
<text transform="matrix(0.7923 0 0 1 32.2085 90.5739)" class="st2 st3 st4">W</text>
<g>
	<g>
		<path class="st5" d="M46.9,30.5l-6-6.3l0.6-0.3c1.5,1.5,4.8,5,5.4,5.8l0,0c-0.2-0.8-1.2-5.5-1.7-7.7l0.6-0.3
			c1.5,1.5,5,5.3,5.4,5.8l0,0c-0.3-1.2-1.2-5.7-1.6-7.8l0.6-0.3l1.7,8.6l-0.7,0.4c-1.4-1.5-4.9-5.1-5.3-5.7l0,0
			c0.3,1.1,1.3,5.5,1.7,7.7L46.9,30.5z"/>
		<path class="st5" d="M54.2,23.7c0.5,1.5,1.6,2.1,2.7,1.7c1.1-0.4,1.2-1.1,1.3-1.6l0.6-0.2c0,0.8-0.3,1.9-1.7,2.4
			c-1.7,0.6-2.9-0.7-3.4-2.1c-0.6-1.6-0.2-3.3,1.4-3.9c1.7-0.6,2.8,0.7,3.2,1.8c0.1,0.2,0.1,0.3,0.1,0.5L54.2,23.7z M57.7,22
			c-0.4-1.1-1.3-1.8-2.4-1.4c-1.2,0.4-1.4,1.4-1.1,2.6L57.7,22z"/>
		<path class="st5" d="M61.5,18.3l1.1-0.2l-0.3-1.8l0.6-0.1l0.3,1.8l1.4-0.3l0.1,0.6l-1.4,0.3l0.7,3.8c0.1,0.7,0.3,1,0.9,0.9
			c0.2,0,0.4-0.1,0.6-0.2l0.1,0.5c-0.2,0.1-0.5,0.2-0.7,0.2c-0.8,0.1-1.3-0.2-1.4-1.1l-0.8-4.1l-1.1,0.2L61.5,18.3z"/>
		<path class="st5" d="M66.5,14.6l0.4,3.8c0.3-0.7,0.8-1.2,1.9-1.3c0.8-0.1,2.1,0.2,2.2,2.1l0.4,3.8l-0.6,0.1l-0.3-3.7
			c-0.1-1.2-0.7-1.8-1.7-1.7c-1.2,0.1-1.8,0.9-1.7,2.4l0.3,3.3l-0.6,0.1l-0.8-8.8L66.5,14.6z"/>
		<path class="st5" d="M73.3,20c0,1.5,0.7,2.5,1.9,2.5c1.1,0,1.5-0.6,1.8-1.1l0.6,0c-0.3,0.8-0.9,1.7-2.4,1.6
			c-1.8,0-2.5-1.6-2.5-3.1c0-1.7,0.9-3.2,2.7-3.1c1.8,0,2.4,1.6,2.4,2.8c0,0.2,0,0.3,0,0.5L73.3,20z M77.1,19.6
			c0-1.2-0.6-2.1-1.8-2.2c-1.2,0-1.8,0.8-2,2.1L77.1,19.6z"/>
		<path class="st5" d="M83.4,23.8l-0.3-8.7l0.7,0.2c0.1,2.1,0.2,6.9,0.2,7.9l0,0c0.3-0.7,2.8-4.9,3.9-6.9l0.7,0.2
			c0.1,2.1,0.2,7.2,0.2,7.9l0,0c0.5-1.1,2.9-5.1,4-6.9l0.6,0.2l-4.5,7.6l-0.7-0.2c-0.1-2.1-0.2-7.1-0.2-7.8l0,0
			c-0.5,1-2.8,5-3.8,6.8L83.4,23.8z"/>
		<path class="st5" d="M97.9,25.4c-0.6,1.5-2.1,2.5-3.7,1.9c-1.5-0.6-1.9-2.2-1.2-3.9c0.7-1.6,2.1-2.5,3.7-1.8
			C98.1,22.1,98.6,23.6,97.9,25.4z M93.5,23.5c-0.6,1.3-0.3,2.7,0.9,3.2c1.2,0.5,2.3-0.2,2.9-1.6c0.6-1.3,0.3-2.7-0.9-3.2
			C95.1,21.4,94.1,22.2,93.5,23.5z"/>
		<path class="st5" d="M99.9,24.9c0.5-0.9,0.7-1.3,0.8-1.4l0.5,0.3c-0.1,0.2-0.3,0.5-0.6,1.2c0.7-0.6,1.7-0.7,2.5-0.3l-0.3,0.6
			c-1.1-0.5-2.3-0.2-3,1.1L98.4,29l-0.5-0.3L99.9,24.9z"/>
		<path class="st5" d="M101.1,30.6l4.7-7.5l0.5,0.3l-4.7,7.5L101.1,30.6z"/>
		<path class="st5" d="M112.2,27.6l-4.3,5.7c-0.3,0.5-0.7,0.9-1,1.4l-0.5-0.3c0.1-0.1,0.4-0.6,0.6-0.8c-0.7,0.4-1.5,0.3-2.3-0.3
			c-1.3-0.9-1.2-2.5-0.2-4c1.1-1.5,2.7-2,4-1c1,0.7,1,1.4,1,1.8l2.2-2.9L112.2,27.6z M105.1,29.6c-1,1.3-0.8,2.5,0,3.2
			c1.3,0.9,2.3,0.3,3.2-1c0.9-1.2,1.2-2.2-0.1-3.1C107.3,28,106.1,28.3,105.1,29.6z"/>
		<path class="st6" d="M118.8,48.4l6.4-5.9l0.3,0.6c-1.5,1.4-5.1,4.7-5.8,5.3l0,0c0.8-0.2,5.5-1.1,7.8-1.6l0.3,0.6
			c-1.6,1.4-5.3,4.9-5.8,5.3l0,0c1.2-0.3,5.8-1.1,7.8-1.5l0.3,0.6l-8.6,1.6l-0.3-0.7c1.5-1.4,5.2-4.8,5.8-5.3l0,0
			c-1.1,0.3-5.6,1.2-7.7,1.6L118.8,48.4z"/>
		<path class="st6" d="M125.5,55.9c-1.5,0.5-2.1,1.5-1.8,2.6c0.4,1.1,1.1,1.2,1.6,1.3l0.2,0.6c-0.8,0-1.9-0.3-2.3-1.7
			c-0.6-1.7,0.7-2.9,2.1-3.4c1.6-0.5,3.3-0.2,3.8,1.5c0.6,1.8-0.7,2.8-1.8,3.2c-0.2,0.1-0.3,0.1-0.5,0.1L125.5,55.9z M127.2,59.3
			c1.1-0.4,1.8-1.3,1.4-2.4c-0.4-1.2-1.4-1.4-2.6-1.2L127.2,59.3z"/>
		<path class="st6" d="M130.8,63.3l0.2,1.1l1.8-0.3l0.1,0.6l-1.8,0.3l0.2,1.4l-0.6,0.1l-0.2-1.4l-3.8,0.7c-0.7,0.1-1,0.3-0.9,0.9
			c0,0.2,0.1,0.4,0.2,0.6l-0.5,0.1c-0.1-0.2-0.2-0.5-0.2-0.7c-0.1-0.8,0.2-1.2,1.1-1.4l4.1-0.7l-0.2-1.1L130.8,63.3z"/>
		<path class="st6" d="M134.5,68.3l-3.8,0.3c0.6,0.3,1.2,0.8,1.3,1.9c0.1,0.8-0.3,2.1-2.2,2.2L126,73l0-0.6l3.7-0.3
			c1.2-0.1,1.8-0.7,1.7-1.7c-0.1-1.2-0.9-1.8-2.4-1.7l-3.3,0.3l0-0.6l8.8-0.7L134.5,68.3z"/>
		<path class="st6" d="M129,75c-1.5,0-2.5,0.7-2.6,1.9c0,1.1,0.6,1.5,1.1,1.8l0,0.6c-0.8-0.3-1.7-0.9-1.6-2.4
			c0.1-1.8,1.7-2.5,3.2-2.4c1.7,0.1,3.2,1,3.1,2.7c-0.1,1.8-1.7,2.4-2.8,2.3c-0.2,0-0.3,0-0.5,0L129,75z M129.4,78.8
			c1.2,0,2.1-0.6,2.2-1.8c0-1.2-0.8-1.8-2.1-2L129.4,78.8z"/>
		<path class="st6" d="M125.1,85.1l8.7-0.2l-0.2,0.7c-2.1,0-6.9,0.1-7.9,0.1l0,0c0.7,0.3,4.9,2.8,6.9,4l-0.2,0.7
			c-2.1,0-7.2,0.1-7.9,0.1l0,0c1.1,0.6,5,3,6.8,4.1l-0.2,0.6l-7.5-4.6l0.2-0.7c2.1,0,7.1-0.1,7.8-0.1l0,0c-1-0.5-4.9-2.8-6.8-3.9
			L125.1,85.1z"/>
		<path class="st6" d="M123.3,99.5c-1.5-0.7-2.5-2.1-1.8-3.8c0.7-1.5,2.3-1.9,3.9-1.1c1.6,0.7,2.5,2.1,1.8,3.7
			C126.6,99.8,125.1,100.3,123.3,99.5z M125.2,95.2c-1.3-0.6-2.7-0.3-3.2,0.8c-0.5,1.2,0.2,2.3,1.5,2.9c1.3,0.6,2.7,0.4,3.2-0.8
			C127.3,96.8,126.5,95.8,125.2,95.2z"/>
		<path class="st6" d="M123.7,101.6c0.9,0.5,1.3,0.7,1.4,0.8l-0.3,0.5c-0.2-0.1-0.5-0.3-1.2-0.6c0.6,0.7,0.7,1.7,0.3,2.5l-0.6-0.3
			c0.5-1.1,0.2-2.3-1.1-3l-2.7-1.5l0.3-0.5L123.7,101.6z"/>
		<path class="st6" d="M118,102.7l7.5,4.8l-0.3,0.5l-7.5-4.8L118,102.7z"/>
		<path class="st6" d="M121,113.8l-5.7-4.3c-0.5-0.4-0.9-0.7-1.4-1l0.4-0.5c0.1,0.1,0.6,0.4,0.8,0.6c-0.4-0.7-0.3-1.5,0.3-2.3
			c0.9-1.2,2.5-1.2,4-0.1c1.5,1.1,1.9,2.8,0.9,4.1c-0.7,1-1.4,1-1.8,0.9l2.9,2.2L121,113.8z M119,106.6c-1.3-1-2.5-0.9-3.2,0
			c-1,1.3-0.4,2.3,0.9,3.3c1.2,0.9,2.2,1.2,3.1,0C120.6,108.9,120.3,107.6,119,106.6z"/>
		<path class="st7" d="M97.3,121.6l5.5,6.8l-0.6,0.3c-1.3-1.6-4.3-5.4-4.9-6.2l0,0c0.2,0.8,0.7,5.6,1.1,7.9l-0.7,0.3
			c-1.3-1.7-4.5-5.7-4.9-6.2l0,0c0.2,1.2,0.7,5.8,1,7.9l-0.6,0.3l-1-8.7l0.7-0.3c1.3,1.6,4.4,5.5,4.8,6.1l0,0
			c-0.2-1.1-0.8-5.6-1.1-7.8L97.3,121.6z"/>
		<path class="st7" d="M89.4,127.8c-0.4-1.5-1.4-2.2-2.5-2c-1.1,0.3-1.3,1-1.4,1.5l-0.6,0.2c0-0.8,0.4-1.9,1.9-2.2
			c1.8-0.5,2.8,0.9,3.2,2.4c0.4,1.7,0,3.3-1.7,3.7c-1.8,0.5-2.8-0.9-3-2c0-0.2-0.1-0.3-0.1-0.5L89.4,127.8z M85.9,129.2
			c0.3,1.1,1.2,1.9,2.3,1.6c1.2-0.3,1.5-1.3,1.3-2.5L85.9,129.2z"/>
		<path class="st7" d="M81.7,132.5l-1.1,0.1l0.2,1.9l-0.6,0.1l-0.2-1.9l-1.4,0.1l-0.1-0.6l1.4-0.1l-0.4-3.9c-0.1-0.7-0.3-1-0.8-1
			c-0.2,0-0.4,0.1-0.6,0.1l-0.1-0.5c0.2-0.1,0.5-0.2,0.7-0.2c0.8-0.1,1.2,0.3,1.3,1.2l0.4,4.2l1.1-0.1L81.7,132.5z"/>
		<path class="st7" d="M76.4,135.8l-0.1-3.8c-0.3,0.6-0.9,1.2-2,1.2c-0.9,0-2-0.4-2.1-2.3l-0.1-3.8l0.6,0l0.1,3.7
			c0,1.2,0.6,1.9,1.6,1.8c1.2,0,1.9-0.8,1.8-2.2l-0.1-3.3l0.6,0l0.1,8.8L76.4,135.8z"/>
		<path class="st7" d="M70.1,129.8c0.1-1.5-0.5-2.6-1.7-2.7c-1.1-0.1-1.6,0.5-1.8,0.9L66,128c0.3-0.8,1.1-1.6,2.5-1.4
			c1.8,0.2,2.4,1.8,2.2,3.3c-0.2,1.7-1.2,3.1-2.9,2.9c-1.8-0.2-2.3-1.8-2.1-3c0-0.2,0-0.3,0.1-0.5L70.1,129.8z M66.3,130
			c-0.1,1.2,0.4,2.2,1.6,2.3c1.2,0.1,1.9-0.7,2.1-1.9L66.3,130z"/>
		<path class="st7" d="M60.3,125.3l-0.5,8.7l-0.6-0.2c0.1-2.1,0.4-6.9,0.5-7.9l0,0c-0.4,0.7-3.2,4.7-4.4,6.6l-0.7-0.2
			c0.1-2.1,0.4-7.2,0.5-7.9l0,0c-0.6,1-3.4,4.8-4.5,6.5l-0.6-0.2l5.1-7.2l0.7,0.2c-0.1,2.1-0.4,7.1-0.5,7.8l0,0
			c0.6-1,3.2-4.7,4.4-6.5L60.3,125.3z"/>
		<path class="st7" d="M46.1,122.5c0.8-1.5,2.3-2.4,3.9-1.5c1.4,0.8,1.7,2.4,0.9,4c-0.8,1.5-2.3,2.3-3.8,1.5
			C45.6,125.7,45.2,124.1,46.1,122.5z M50.2,124.7c0.7-1.3,0.5-2.6-0.6-3.2c-1.1-0.6-2.3,0-3,1.3c-0.7,1.3-0.6,2.6,0.6,3.2
			C48.5,126.6,49.6,125.9,50.2,124.7z"/>
		<path class="st7" d="M44,122.7c-0.6,0.8-0.8,1.2-0.9,1.4l-0.5-0.3c0.1-0.2,0.3-0.5,0.7-1.1c-0.8,0.6-1.7,0.6-2.6,0.1l0.4-0.5
			c1.1,0.6,2.3,0.3,3-0.8l1.7-2.6l0.5,0.3L44,122.7z"/>
		<path class="st7" d="M43.3,117l-5.3,7.1l-0.5-0.4l5.3-7.1L43.3,117z"/>
		<path class="st7" d="M32,119.1l4.7-5.3c0.4-0.4,0.7-0.8,1.1-1.3l0.4,0.4c-0.1,0.1-0.4,0.6-0.6,0.8c0.7-0.4,1.5-0.2,2.3,0.5
			c1.2,1,1,2.6-0.2,4c-1.2,1.4-2.9,1.7-4.1,0.7c-0.9-0.8-0.9-1.5-0.8-1.9l-2.4,2.7L32,119.1z M39.3,117.6c1.1-1.2,1-2.5,0.3-3.1
			c-1.2-1-2.2-0.5-3.3,0.7c-1,1.2-1.3,2.1-0.2,3.1C36.9,119.1,38.2,118.9,39.3,117.6z"/>
		<path class="st8" d="M27.1,97.7l-6.9,5.4l-0.3-0.6c1.6-1.3,5.4-4.3,6.3-4.8l0,0c-0.8,0.2-5.6,0.7-7.9,1L18.1,98
			c1.7-1.3,5.7-4.4,6.3-4.8l0,0c-1.2,0.2-5.8,0.6-7.9,0.9l-0.3-0.6l8.7-0.9l0.3,0.7c-1.6,1.3-5.6,4.4-6.2,4.8l0,0
			c1.1-0.2,5.6-0.7,7.8-1L27.1,97.7z"/>
		<path class="st8" d="M21,89.7c1.5-0.4,2.3-1.4,2-2.5c-0.3-1.1-1-1.3-1.5-1.4l-0.1-0.6c0.8,0.1,1.9,0.5,2.2,1.9
			c0.4,1.8-0.9,2.8-2.4,3.2c-1.7,0.4-3.3-0.1-3.7-1.8c-0.4-1.8,1-2.7,2.1-3c0.2,0,0.3-0.1,0.5-0.1L21,89.7z M19.6,86.2
			c-1.2,0.3-1.9,1.1-1.6,2.3c0.3,1.2,1.3,1.5,2.5,1.4L19.6,86.2z"/>
		<path class="st8" d="M16.4,81.9l-0.1-1.1L14.4,81l-0.1-0.6l1.9-0.2l-0.1-1.4l0.6-0.1l0.1,1.4l3.9-0.4c0.7-0.1,1-0.2,1-0.8
			c0-0.2-0.1-0.4-0.1-0.6l0.5,0c0.1,0.2,0.2,0.5,0.2,0.7c0.1,0.8-0.3,1.2-1.2,1.3l-4.2,0.4l0.1,1.1L16.4,81.9z"/>
		<path class="st8" d="M13.1,76.5l3.9,0.1c-0.6-0.3-1.1-0.9-1.1-2c0-0.9,0.5-2,2.4-2l3.8,0.1l0,0.6l-3.7-0.1c-1.2,0-1.9,0.5-1.9,1.5
			c0,1.2,0.7,1.9,2.2,1.9l3.3,0.1l0,0.6l-8.8-0.1L13.1,76.5z"/>
		<path class="st8" d="M19.2,70.4c1.5,0.2,2.6-0.5,2.7-1.6c0.1-1.1-0.5-1.6-0.9-1.8l0.1-0.6c0.8,0.3,1.6,1.1,1.4,2.5
			c-0.2,1.8-1.9,2.3-3.4,2.2c-1.7-0.2-3.1-1.2-2.9-3c0.2-1.8,1.9-2.2,3-2.1c0.2,0,0.3,0,0.5,0.1L19.2,70.4z M19.1,66.6
			C18,66.4,17,67,16.8,68.1c-0.1,1.2,0.6,1.9,1.9,2.2L19.1,66.6z"/>
		<path class="st8" d="M23.9,60.7l-8.7-0.6l0.2-0.6c2.1,0.1,6.9,0.5,7.9,0.6l0,0c-0.7-0.4-4.6-3.2-6.5-4.5l0.2-0.7
			c2.1,0.2,7.2,0.5,7.9,0.6l0,0c-1-0.6-4.8-3.4-6.5-4.6l0.2-0.6l7.1,5.2l-0.2,0.7c-2.1-0.1-7.1-0.5-7.8-0.6l0,0
			c1,0.6,4.7,3.2,6.4,4.5L23.9,60.7z"/>
		<path class="st8" d="M26.9,46.5c1.5,0.8,2.3,2.3,1.5,3.9c-0.8,1.4-2.4,1.7-4,0.8c-1.5-0.8-2.3-2.3-1.5-3.9
			C23.6,45.9,25.2,45.6,26.9,46.5z M24.7,50.6c1.3,0.7,2.6,0.6,3.2-0.6c0.6-1.1,0-2.3-1.3-3c-1.2-0.7-2.6-0.6-3.2,0.6
			C22.7,48.8,23.4,49.9,24.7,50.6z"/>
		<path class="st8" d="M26.7,44.4c-0.8-0.6-1.2-0.8-1.4-0.9l0.3-0.5c0.2,0.1,0.5,0.3,1.1,0.7c-0.6-0.8-0.6-1.7-0.1-2.6l0.5,0.4
			c-0.6,1.1-0.4,2.3,0.8,3.1l2.6,1.7l-0.3,0.5L26.7,44.4z"/>
		<path class="st8" d="M32.4,43.7l-7-5.4l0.4-0.5l7,5.4L32.4,43.7z"/>
		<path class="st8" d="M30.5,32.4l5.3,4.8c0.4,0.4,0.8,0.8,1.3,1.2l-0.4,0.4c-0.1-0.1-0.5-0.4-0.8-0.6c0.3,0.7,0.2,1.5-0.5,2.3
			c-1,1.2-2.6,1-4-0.2c-1.4-1.2-1.7-2.9-0.6-4.1c0.8-0.9,1.5-0.9,1.9-0.8l-2.7-2.4L30.5,32.4z M31.8,39.7c1.2,1.1,2.4,1.1,3.1,0.3
			c1.1-1.2,0.5-2.2-0.7-3.3c-1.1-1-2.1-1.4-3.1-0.2C30.4,37.4,30.6,38.6,31.8,39.7z"/>
	</g>
</g>
</svg>
